<svg width="961" height="265" viewBox="0 0 961 265" fill="none" xmlns="http://www.w3.org/2000/svg">
<g clip-path="url(#clip0_554_1031)">
<path d="M232.2 0V204L258.4 204.1V107H321.7V81.3H258.4V25.7H340.8V0H232.2Z" fill="#DCDCDC"/>
<path d="M388.1 41.4C397.6 41.4 405.2 33.6999 405.2 24.2999C405.2 14.9 397.5 7.19995 388.1 7.19995C378.6 7.19995 371 14.9 371 24.2999C371 33.6999 378.7 41.4 388.1 41.4Z" fill="#DCDCDC"/>
<path d="M374.8 67.1V204H401V67.1H374.8Z" fill="#DCDCDC"/>
<path fill-rule="evenodd" clip-rule="evenodd" d="M498.3 63.1C463.4 63.1 439.1 92.6 439.1 127.6C439.1 162.6 463.4 192.1 498.3 192.1C514.3 192.1 527.4 185.9 537 175.9V194C537 216.7 519.2 235.6 495.9 235.6C487.5 235.6 479.2 232.4 472.6 227.8L459.4 250.6C469.9 257.4 482.4 261.3 495.8 261.3C533 261.3 563.1 231.2 563.1 194V67.1H537V79.3C527.4 69.3 514.3 63.1 498.3 63.1ZM465.4 127.6C465.4 105.9 482 88.8 501.2 88.8C520.4 88.8 537 105.9 537 127.6C537 149.3 520.4 166.4 501.2 166.4C482 166.4 465.4 149.3 465.4 127.6Z" fill="#DCDCDC"/>
<path d="M657.8 88.8C642.3 88.8 629.7 102 629.7 117.5V204H603.5V67.1H629.7V79.6C637.4 69.7 648.7 63.1 663.5 63.1C681.9 63.1 696 72.2 704.2 86.2C713.3 72.7 728.1 63.1 746 63.1C775.9 63.1 794.5 87.2 794.6 117C794.6 117.1 794.6 117.2 794.6 117.3V117.4V204H768.4V117.4C768.4 101.9 755.8 88.7 740.3 88.7C724.8 88.7 712.2 101.9 712.2 117.4V204H686V117.4C685.9 101.9 673.3 88.8 657.8 88.8Z" fill="#DCDCDC"/>
<path fill-rule="evenodd" clip-rule="evenodd" d="M934.4 82.6C922.7 70.5 906.7 63.1 888.2 63.1C849.2 63.1 821.4 96.2 821.4 135.6C821.4 175 849.1 208.1 888.2 208.1C906.7 208.1 922.7 200.6 934.4 188.6V204H960.6V67.1H934.4V82.6ZM847.7 135.6C847.7 109.5 867.7 88.8 891.1 88.8C914.4 88.8 934.5 109.4 934.5 135.6C934.5 161.7 914.5 182.4 891.1 182.4C867.7 182.3 847.7 161.7 847.7 135.6Z" fill="#DCDCDC"/>
<path d="M88.1001 132.2C88.1001 107.9 107.8 88.1 132.2 88.1C156.5 88.1 176.3 107.8 176.3 132.2C176.3 156.5 156.6 176.3 132.2 176.3C107.9 176.3 88.1001 156.5 88.1001 132.2Z" fill="#DCDCDC"/>
<path d="M0 220.3C0 196 19.7 176.2 44.1 176.2H88.2V220.3C88.2 244.6 68.5 264.4 44.1 264.4C19.7 264.4 0 244.7 0 220.3Z" fill="#DCDCDC"/>
<path d="M88.1001 2.44156e-05V88.1H132.2C156.5 88.1 176.3 68.4 176.3 44C176.3 19.7 156.6 -0.0999756 132.2 -0.0999756H88.1001V2.44156e-05Z" fill="#DCDCDC"/>
<path d="M0 44.1C0 68.4 19.7 88.2 44.1 88.2H88.2V0H44.1C19.7 0 0 19.7 0 44.1Z" fill="#DCDCDC"/>
<path d="M0 132.2C0 156.5 19.7 176.3 44.1 176.3H88.2V88.1H44.1C19.7 88.1 0 107.9 0 132.2Z" fill="#DCDCDC"/>
</g>
<defs>
<clipPath id="clip0_554_1031">
<rect width="960.6" height="264.4" fill="white"/>
</clipPath>
</defs>
</svg>
