<svg width="110" height="30" viewBox="0 0 110 30" fill="none" xmlns="http://www.w3.org/2000/svg">
<g clip-path="url(#clip0_129_2031)">
<path d="M36.6979 4.05164C34.9665 4.05164 32.7319 4.74107 31.5051 6.30051V4.48664H26.1681V29.7645H31.5051V19.5379C32.7305 21.1343 34.9665 21.8593 36.6979 21.8593C40.9169 21.8593 44.8829 18.4135 44.8829 12.9377C44.8829 7.46188 40.9169 4.053 36.6979 4.053V4.05164ZM35.5799 16.8896C33.5602 16.8896 31.686 15.1483 31.686 12.9363C31.686 10.7244 33.5248 9.01994 35.5799 9.01994C37.635 9.01994 39.4739 10.7969 39.4739 12.9363C39.4739 15.0758 37.6704 16.8896 35.5799 16.8896Z" fill="white"/>
<path d="M59.4058 6.51801C58.2524 4.95857 56.196 4.05164 54.1409 4.05164C49.3452 4.05164 46.028 7.64244 46.028 12.9732C46.028 18.3041 49.3452 21.8579 54.0688 21.8579C56.196 21.8579 58.2511 20.8785 59.4058 19.2835V21.4229H64.7428V4.48664H59.4058V6.51801V6.51801ZM55.3677 16.8896C53.0596 16.8896 51.4738 15.0402 51.4738 12.9732C51.4738 10.7969 53.0596 9.01994 55.3323 9.01994C57.605 9.01994 59.2263 10.7613 59.2263 12.9732C59.2263 15.0402 57.5316 16.8896 55.3677 16.8896Z" fill="white"/>
<path d="M78.5721 4.48682L75.1461 13.2634L71.6493 4.48682H65.7356L72.3701 19.3931L68.2232 29.7647H73.9206L84.3049 4.48682H78.5721Z" fill="white"/>
<path d="M96.8627 6.51801C95.7093 4.95857 93.6529 4.05164 91.5978 4.05164C86.8021 4.05164 83.4849 7.64244 83.4849 12.9732C83.4849 18.3041 86.8021 21.8579 91.5257 21.8579C93.6529 21.8579 95.708 20.8785 96.8627 19.2835V21.4229H102.2V4.48664H96.8627V6.51801ZM92.8246 16.8896C90.5165 16.8896 88.9307 15.0402 88.9307 12.9732C88.9307 10.7969 90.5165 9.01994 92.7892 9.01994C95.0619 9.01994 96.6832 10.7613 96.6832 12.9732C96.6832 15.0402 94.9885 16.8896 92.8246 16.8896Z" fill="white"/>
<path d="M63.1347 6.10352e-05H49.1897V2.33374H63.1347V6.10352e-05Z" fill="#FF5527"/>
<path d="M18.3204 13.3005C18.3204 15.9119 16.7699 16.8913 15.4003 16.8913C15.3472 16.8913 15.2928 16.8899 15.2384 16.8872C15.184 16.8899 15.1296 16.8913 15.0766 16.8913C13.707 16.8913 12.1565 15.9119 12.1565 13.3005V12.8628H6.83036C6.83036 12.8628 6.8222 12.8628 6.81812 12.8628V13.6288C6.81812 15.4194 7.06157 17.2935 7.91163 18.8939C8.62567 20.2372 10.3666 22.259 15.2384 22.259C20.1103 22.259 22.232 19.7366 22.8332 18.3317C23.4643 16.8585 23.6574 15.2211 23.6574 13.6302V4.48694H18.3204V13.3005Z" fill="white"/>
<path d="M12.1537 6.03155V4.48853H6.81812V6.03291C6.81812 6.03291 6.82628 6.03291 6.83036 6.03291H12.1551L12.1537 6.03155Z" fill="white"/>
<path d="M5.87015 7.99457H0V8.94117H5.87015V7.99457Z" fill="white"/>
<path d="M5.87015 10.1544H0V11.101H5.87015V10.1544Z" fill="white"/>
<path d="M5.39928 10.1544H0.482553C0.260859 10.1544 0.0595655 10.3021 0.0119624 10.5196C-0.0560421 10.8287 0.175173 11.1023 0.470313 11.1023H5.38704C5.60737 11.1023 5.81003 10.9546 5.85763 10.7371C5.92563 10.4279 5.69442 10.1544 5.39928 10.1544Z" fill="white"/>
<path d="M12.1551 6.93024H6.81812V12.1366H12.1551V6.93024Z" fill="white"/>
<path d="M110.001 6.93024H104.664V11.9628H110.001V6.93024Z" fill="#FF5527"/>
<path d="M110.001 14.3741H104.664V19.4067H110.001V14.3741Z" fill="#FF5527"/>
<path d="M18.3204 13.3005C18.3204 15.9119 16.7699 16.8913 15.4003 16.8913C15.3472 16.8913 15.2928 16.8899 15.2384 16.8872C15.184 16.8899 15.1296 16.8913 15.0766 16.8913C13.707 16.8913 12.1565 15.9119 12.1565 13.3005V12.8628H6.83036C6.83036 12.8628 6.8222 12.8628 6.81812 12.8628V13.6288C6.81812 15.4194 7.06157 17.2935 7.91163 18.8939C8.62567 20.2372 10.3666 22.259 15.2384 22.259C20.1103 22.259 22.232 19.7366 22.8332 18.3317C23.4643 16.8585 23.6574 15.2211 23.6574 13.6302V4.48694H18.3204V13.3005Z" fill="white"/>
<path d="M12.1537 6.03155V4.48853H6.81812V6.03291C6.81812 6.03291 6.82628 6.03291 6.83036 6.03291H12.1551L12.1537 6.03155Z" fill="white"/>
<path d="M5.87015 7.99457H0V8.94117H5.87015V7.99457Z" fill="#FF5527"/>
<path d="M5.87015 10.1544H0V11.101H5.87015V10.1544Z" fill="#FF5527"/>
<path d="M12.1551 6.76886H6.81812V12.1366H12.1551V6.76886Z" fill="#FF5527"/>
</g>
<defs>
<clipPath id="clip0_129_2031">
<rect width="110" height="29.7647" fill="white"/>
</clipPath>
</defs>
</svg>
